%
M48
M72
T01C0.0240
T02C0.0276
T03C0.0300
T04C0.0315
T05C0.0320
T06C0.0394
T07C0.0400
T08C0.1300
%
T01
X4155Y1620
X6715Y2980
X8875Y3620
X9275Y4180
X10075Y6340
X9275Y10980
X9275Y11780
X9915Y12580
X9995Y14020
X11675Y12020
X13675Y10980
X14635Y11780
X12955Y14020
X11595Y16420
X7435Y17060
X6955Y17060
X5195Y16260
X3595Y16260
X2075Y15860
X2235Y14500
X2475Y14020
X4155Y12500
X2555Y10420
X2155Y10020
X2075Y8340
X3435Y7460
X7195Y11620
X6635Y13300
X15355Y3220
T02
X6555Y2100
X5555Y2100
X6555Y9600
X6555Y10600
X6555Y11600
X6555Y12600
T03
X6055Y13616
X5039Y13100
X5039Y12100
X5039Y11100
X4055Y10350
X4055Y9750
X4055Y9150
X4055Y8550
X4539Y7600
X4539Y6600
X5555Y5584
X6555Y5584
X6555Y3616
X5555Y3616
X4539Y3100
X2571Y3100
X2571Y6600
X2571Y7600
X3071Y11100
X3071Y12100
X3071Y13100
X6055Y15584
T04
X6555Y8600
X6555Y7600
X6555Y6600
T05
X8055Y6600
X8055Y5600
X8055Y4600
X8055Y3600
X8055Y2600
X11055Y2600
X11055Y3600
X11055Y4600
X11055Y5600
X11055Y6600
X11055Y7600
X11055Y8600
X11055Y9600
X11055Y10600
X11055Y11600
X11055Y12600
X11055Y13600
X11055Y14600
X11055Y15600
X8055Y15600
X8055Y14600
X8055Y13600
X8055Y12600
X8055Y11600
X8055Y10600
X8055Y9600
X8055Y8600
X8055Y7600
X4555Y5100
X3555Y5100
X2555Y5100
X4055Y14350
X3555Y15100
X4555Y15100
T06
X12555Y15100
X12555Y11100
T07
X13055Y8100
X14055Y8100
X15055Y8100
X16055Y8100
X17055Y8100
X17055Y7100
X16055Y7100
X15055Y7100
X14055Y7100
X13055Y7100
X18555Y11600
X18555Y12600
X18555Y13600
X16055Y16600
X15055Y16600
X14055Y16600
X14055Y17600
X15055Y17600
X16055Y17600
X12555Y18100
X11555Y18100
X10555Y18100
X9555Y18100
X8555Y18100
X7555Y18100
X6555Y18100
X5555Y18100
X4555Y18100
X3555Y18100
X1555Y14600
X1555Y13600
X1555Y12600
X1555Y11600
X1555Y10600
X1555Y9600
X1555Y7600
X1555Y6600
X4555Y1100
X5555Y1100
X6555Y1100
X7555Y1100
X8555Y1100
T08
X2055Y1600
X18055Y1600
X18055Y17600
X2055Y17600
M30
