G75*
G70*
%OFA0B0*%
%FSLAX24Y24*%
%IPPOS*%
%LPD*%
%AMOC8*
5,1,8,0,0,1.08239X$1,22.5*
%
%ADD10C,0.0040*%
%ADD11C,0.0020*%
%ADD12C,0.0030*%
%ADD13C,0.0080*%
%ADD14C,0.0050*%
%ADD15C,0.0010*%
%ADD16C,0.0060*%
%ADD17R,0.0200X0.0200*%
%ADD18C,0.0100*%
D10*
X012511Y003697D02*
X012588Y003620D01*
X012741Y003620D01*
X012818Y003697D01*
X012818Y003773D01*
X012741Y003850D01*
X012588Y003850D01*
X012511Y003927D01*
X012511Y004004D01*
X012588Y004080D01*
X012741Y004080D01*
X012818Y004004D01*
X012971Y003927D02*
X013048Y003927D01*
X013125Y003850D01*
X013201Y003927D01*
X013278Y003850D01*
X013278Y003620D01*
X013125Y003620D02*
X013125Y003850D01*
X012971Y003927D02*
X012971Y003620D01*
X013432Y003697D02*
X013508Y003620D01*
X013739Y003620D01*
X013739Y003850D01*
X013662Y003927D01*
X013508Y003927D01*
X013508Y003773D02*
X013739Y003773D01*
X013892Y003773D02*
X014046Y003927D01*
X014122Y003927D01*
X014276Y003927D02*
X014429Y003927D01*
X014352Y004004D02*
X014352Y003697D01*
X014429Y003620D01*
X014583Y003620D02*
X014583Y004080D01*
X014813Y004080D01*
X014890Y004004D01*
X014890Y003850D01*
X014813Y003773D01*
X014583Y003773D01*
X015043Y003697D02*
X015120Y003620D01*
X015350Y003620D01*
X015350Y003927D01*
X015503Y003927D02*
X015810Y003620D01*
X015964Y003620D02*
X015964Y003697D01*
X016041Y003697D01*
X016041Y003620D01*
X015964Y003620D01*
X016194Y003697D02*
X016271Y003620D01*
X016501Y003620D01*
X016654Y003697D02*
X016731Y003620D01*
X016885Y003620D01*
X016961Y003697D01*
X016961Y003850D01*
X016885Y003927D01*
X016731Y003927D01*
X016654Y003850D01*
X016654Y003697D01*
X016501Y003927D02*
X016271Y003927D01*
X016194Y003850D01*
X016194Y003697D01*
X015810Y003927D02*
X015503Y003620D01*
X015043Y003697D02*
X015043Y003927D01*
X013892Y003927D02*
X013892Y003620D01*
X013508Y003773D02*
X013432Y003697D01*
X017115Y003620D02*
X017115Y003927D01*
X017192Y003927D01*
X017268Y003850D01*
X017345Y003927D01*
X017422Y003850D01*
X017422Y003620D01*
X017268Y003620D02*
X017268Y003850D01*
D11*
X016347Y001690D02*
X016274Y001690D01*
X016237Y001653D01*
X016237Y001507D01*
X016274Y001470D01*
X016347Y001470D01*
X016384Y001507D01*
X016384Y001653D02*
X016347Y001690D01*
X016163Y001470D02*
X016016Y001470D01*
X016016Y001690D01*
X015795Y001690D02*
X015795Y001470D01*
X015942Y001470D01*
X015500Y001470D02*
X015500Y001580D01*
X015463Y001617D01*
X015353Y001617D01*
X015353Y001470D01*
X015279Y001507D02*
X015279Y001580D01*
X015242Y001617D01*
X015169Y001617D01*
X015132Y001580D01*
X015132Y001507D01*
X015169Y001470D01*
X015242Y001470D01*
X015279Y001507D01*
X015058Y001470D02*
X014985Y001470D01*
X015022Y001470D02*
X015022Y001617D01*
X014985Y001617D01*
X014911Y001617D02*
X014838Y001617D01*
X014874Y001653D02*
X014874Y001507D01*
X014911Y001470D01*
X014763Y001470D02*
X014653Y001470D01*
X014617Y001507D01*
X014653Y001543D01*
X014763Y001543D01*
X014763Y001580D02*
X014763Y001470D01*
X014763Y001580D02*
X014727Y001617D01*
X014653Y001617D01*
X014542Y001617D02*
X014469Y001470D01*
X014396Y001617D01*
X014321Y001580D02*
X014321Y001507D01*
X014285Y001470D01*
X014211Y001470D01*
X014175Y001507D01*
X014175Y001580D01*
X014211Y001617D01*
X014285Y001617D01*
X014321Y001580D01*
X014100Y001580D02*
X014100Y001470D01*
X014100Y001580D02*
X014064Y001617D01*
X013954Y001617D01*
X013954Y001470D01*
X013879Y001470D02*
X013879Y001580D01*
X013843Y001617D01*
X013733Y001617D01*
X013733Y001470D01*
X013659Y001470D02*
X013585Y001470D01*
X013622Y001470D02*
X013622Y001690D01*
X013585Y001690D02*
X013659Y001690D01*
X013290Y001617D02*
X013180Y001543D01*
X013290Y001470D01*
X013180Y001470D02*
X013180Y001690D01*
X013106Y001617D02*
X013069Y001617D01*
X012996Y001543D01*
X012996Y001470D02*
X012996Y001617D01*
X012922Y001580D02*
X012922Y001470D01*
X012812Y001470D01*
X012775Y001507D01*
X012812Y001543D01*
X012922Y001543D01*
X012922Y001580D02*
X012885Y001617D01*
X012812Y001617D01*
X012701Y001653D02*
X012701Y001580D01*
X012664Y001543D01*
X012554Y001543D01*
X012554Y001470D02*
X012554Y001690D01*
X012664Y001690D01*
X012701Y001653D01*
X012701Y001330D02*
X012701Y001110D01*
X012628Y001110D02*
X012775Y001110D01*
X012628Y001257D02*
X012701Y001330D01*
X012554Y001257D02*
X012480Y001110D01*
X012407Y001257D01*
X012333Y001220D02*
X012333Y001183D01*
X012186Y001183D01*
X012186Y001147D02*
X012186Y001220D01*
X012222Y001257D01*
X012296Y001257D01*
X012333Y001220D01*
X012296Y001110D02*
X012222Y001110D01*
X012186Y001147D01*
X012112Y001110D02*
X012038Y001183D01*
X012075Y001183D02*
X011965Y001183D01*
X011965Y001110D02*
X011965Y001330D01*
X012075Y001330D01*
X012112Y001293D01*
X012112Y001220D01*
X012075Y001183D01*
X012038Y001470D02*
X011965Y001470D01*
X012001Y001470D02*
X012001Y001690D01*
X011965Y001690D01*
X011891Y001580D02*
X011891Y001470D01*
X011891Y001580D02*
X011854Y001617D01*
X011744Y001617D01*
X011744Y001470D01*
X011670Y001543D02*
X011523Y001543D01*
X011523Y001507D02*
X011523Y001580D01*
X011560Y001617D01*
X011633Y001617D01*
X011670Y001580D01*
X011670Y001543D01*
X011633Y001470D02*
X011560Y001470D01*
X011523Y001507D01*
X011449Y001470D02*
X011449Y001690D01*
X011375Y001617D01*
X011302Y001690D01*
X011302Y001470D01*
X011228Y001330D02*
X011155Y001257D01*
X011080Y001293D02*
X010934Y001147D01*
X010970Y001110D01*
X011044Y001110D01*
X011080Y001147D01*
X011080Y001293D01*
X011044Y001330D01*
X010970Y001330D01*
X010934Y001293D01*
X010934Y001147D01*
X010859Y001110D02*
X010713Y001110D01*
X010859Y001257D01*
X010859Y001293D01*
X010823Y001330D01*
X010749Y001330D01*
X010713Y001293D01*
X010639Y001330D02*
X010565Y001257D01*
X010565Y001183D01*
X010639Y001110D01*
X010639Y001470D02*
X010565Y001543D01*
X010565Y001617D01*
X010639Y001690D01*
X010713Y001653D02*
X010713Y001507D01*
X010749Y001470D01*
X010823Y001470D01*
X010859Y001507D01*
X010934Y001470D02*
X011007Y001543D01*
X011007Y001617D01*
X010934Y001690D01*
X010859Y001653D02*
X010823Y001690D01*
X010749Y001690D01*
X010713Y001653D01*
X011228Y001330D02*
X011228Y001110D01*
X011155Y001110D02*
X011301Y001110D01*
X011375Y001220D02*
X011522Y001220D01*
X011486Y001110D02*
X011486Y001330D01*
X011375Y001220D01*
X011596Y001110D02*
X011670Y001183D01*
X011670Y001257D01*
X011596Y001330D01*
X012112Y001507D02*
X012149Y001470D01*
X012222Y001470D01*
X012259Y001507D01*
X012259Y001580D01*
X012222Y001617D01*
X012149Y001617D01*
X012112Y001580D01*
X012112Y001507D01*
X015022Y001690D02*
X015022Y001727D01*
D12*
X005554Y002677D02*
X005492Y002615D01*
X005369Y002615D01*
X005307Y002677D01*
X005307Y002924D01*
X005369Y002985D01*
X005492Y002985D01*
X005554Y002924D01*
X005185Y002924D02*
X005124Y002985D01*
X005000Y002985D01*
X004939Y002924D01*
X004939Y002677D01*
X005000Y002615D01*
X005124Y002615D01*
X005185Y002677D01*
X004817Y002615D02*
X004817Y002862D01*
X004694Y002985D01*
X004570Y002862D01*
X004570Y002615D01*
X004570Y002800D02*
X004817Y002800D01*
X001540Y004115D02*
X001170Y004115D01*
X001170Y004300D01*
X001232Y004362D01*
X001355Y004362D01*
X001417Y004300D01*
X001417Y004115D01*
X001417Y004238D02*
X001540Y004362D01*
X001540Y004483D02*
X001540Y004730D01*
X001478Y004852D02*
X001540Y004913D01*
X001540Y005037D01*
X001478Y005099D01*
X001417Y005099D01*
X001355Y005037D01*
X001355Y004913D01*
X001293Y004852D01*
X001232Y004852D01*
X001170Y004913D01*
X001170Y005037D01*
X001232Y005099D01*
X001170Y005220D02*
X001540Y005220D01*
X001540Y005467D01*
X001355Y005343D02*
X001355Y005220D01*
X001170Y005220D02*
X001170Y005467D01*
X001170Y005588D02*
X001170Y005835D01*
X001170Y005712D02*
X001540Y005712D01*
X001170Y004730D02*
X001170Y004483D01*
X001540Y004483D01*
X001355Y004483D02*
X001355Y004607D01*
X001355Y015115D02*
X001355Y015238D01*
X001170Y015115D02*
X001170Y015362D01*
X001170Y015483D02*
X001170Y015730D01*
X001170Y015852D02*
X001170Y016037D01*
X001232Y016099D01*
X001478Y016099D01*
X001540Y016037D01*
X001540Y015852D01*
X001170Y015852D01*
X001170Y015607D02*
X001540Y015607D01*
X001540Y015115D02*
X001170Y015115D01*
X001170Y016220D02*
X001170Y016343D01*
X001170Y016282D02*
X001540Y016282D01*
X001540Y016343D02*
X001540Y016220D01*
X003570Y017177D02*
X003632Y017115D01*
X003755Y017115D01*
X003817Y017177D01*
X003939Y017115D02*
X004124Y017115D01*
X004185Y017177D01*
X004185Y017424D01*
X004124Y017485D01*
X003939Y017485D01*
X003939Y017115D01*
X003817Y017424D02*
X003755Y017485D01*
X003632Y017485D01*
X003570Y017424D01*
X003570Y017177D01*
X004307Y017177D02*
X004369Y017115D01*
X004492Y017115D01*
X004554Y017177D01*
X004554Y017238D01*
X004492Y017300D01*
X004369Y017300D01*
X004307Y017362D01*
X004307Y017424D01*
X004369Y017485D01*
X004492Y017485D01*
X004554Y017424D01*
X005570Y017485D02*
X005570Y017115D01*
X005755Y017115D01*
X005817Y017177D01*
X005817Y017238D01*
X005755Y017300D01*
X005570Y017300D01*
X005570Y017485D02*
X005755Y017485D01*
X005817Y017424D01*
X005817Y017362D01*
X005755Y017300D01*
X005939Y017485D02*
X006185Y017485D01*
X006307Y017485D02*
X006554Y017115D01*
X006554Y017485D01*
X006307Y017485D02*
X006307Y017115D01*
X006062Y017115D02*
X006062Y017485D01*
X007570Y017485D02*
X007570Y017115D01*
X007817Y017115D02*
X007817Y017485D01*
X007694Y017362D01*
X007570Y017485D01*
X007939Y017300D02*
X007939Y017177D01*
X008000Y017115D01*
X008124Y017115D01*
X008185Y017177D01*
X008185Y017300D01*
X008124Y017362D01*
X008000Y017362D01*
X007939Y017300D01*
X008307Y017362D02*
X008369Y017362D01*
X008369Y017115D01*
X008430Y017115D02*
X008307Y017115D01*
X008552Y017115D02*
X008738Y017115D01*
X008799Y017177D01*
X008738Y017238D01*
X008614Y017238D01*
X008552Y017300D01*
X008614Y017362D01*
X008799Y017362D01*
X008921Y017362D02*
X009044Y017362D01*
X008982Y017424D02*
X008982Y017177D01*
X009044Y017115D01*
X009570Y017177D02*
X009632Y017115D01*
X009755Y017115D01*
X009817Y017177D01*
X009817Y017238D01*
X009755Y017300D01*
X009632Y017300D01*
X009570Y017362D01*
X009570Y017424D01*
X009632Y017485D01*
X009755Y017485D01*
X009817Y017424D01*
X009939Y017485D02*
X009939Y017115D01*
X010185Y017115D01*
X010307Y017115D02*
X010307Y017485D01*
X010492Y017485D01*
X010554Y017424D01*
X010554Y017300D01*
X010492Y017238D01*
X010307Y017238D01*
X010430Y017238D02*
X010554Y017115D01*
X011570Y017115D02*
X011755Y017115D01*
X011817Y017177D01*
X011817Y017238D01*
X011755Y017300D01*
X011570Y017300D01*
X011570Y017115D02*
X011570Y017485D01*
X011755Y017485D01*
X011817Y017424D01*
X011817Y017362D01*
X011755Y017300D01*
X011939Y017300D02*
X012185Y017300D01*
X012185Y017362D02*
X012185Y017115D01*
X011939Y017115D02*
X011939Y017362D01*
X012062Y017485D01*
X012185Y017362D01*
X012307Y017485D02*
X012554Y017485D01*
X012430Y017485D02*
X012430Y017115D01*
X008369Y017485D02*
X008369Y017547D01*
D13*
X004165Y002765D02*
X002945Y002765D01*
X002945Y003435D01*
X004165Y003435D01*
X004165Y002765D01*
X004305Y001600D02*
X004055Y001350D01*
X004055Y000850D01*
X004305Y000600D01*
X004805Y000600D01*
X005055Y000850D01*
X005305Y000600D01*
X005805Y000600D01*
X006055Y000850D01*
X006305Y000600D01*
X006805Y000600D01*
X007055Y000850D01*
X007305Y000600D01*
X007805Y000600D01*
X008055Y000850D01*
X008305Y000600D01*
X008805Y000600D01*
X009055Y000850D01*
X009055Y001350D01*
X008805Y001600D01*
X008305Y001600D01*
X008055Y001350D01*
X007805Y001600D01*
X007305Y001600D01*
X007055Y001350D01*
X006805Y001600D01*
X006305Y001600D01*
X006055Y001350D01*
X005805Y001600D01*
X005305Y001600D01*
X005055Y001350D01*
X004805Y001600D01*
X004305Y001600D01*
X006055Y001850D02*
X006055Y002350D01*
X005890Y003990D02*
X005221Y003990D01*
X005221Y005210D01*
X005890Y005210D01*
X005890Y003990D01*
X006221Y003990D02*
X006221Y005210D01*
X006890Y005210D01*
X006890Y003990D01*
X006221Y003990D01*
X004380Y005750D02*
X002731Y005750D01*
X002945Y006265D02*
X004165Y006265D01*
X004165Y006935D01*
X002945Y006935D01*
X002945Y006265D01*
X002055Y006350D02*
X001805Y006100D01*
X001305Y006100D01*
X001055Y006350D01*
X001055Y006850D01*
X001305Y007100D01*
X001055Y007350D01*
X001055Y007850D01*
X001305Y008100D01*
X001805Y008100D01*
X002055Y007850D01*
X002055Y007350D01*
X001805Y007100D01*
X002055Y006850D01*
X002055Y006350D01*
X002945Y007265D02*
X004165Y007265D01*
X004165Y007935D01*
X002945Y007935D01*
X002945Y007265D01*
X003305Y004100D02*
X003371Y004088D01*
X003437Y004079D01*
X003503Y004074D01*
X003570Y004073D01*
X003637Y004076D01*
X003703Y004083D01*
X003769Y004093D01*
X003834Y004107D01*
X003899Y004125D01*
X003962Y004147D01*
X004024Y004173D01*
X004084Y004201D01*
X004142Y004234D01*
X004199Y004269D01*
X004253Y004308D01*
X004305Y004350D01*
X003305Y004100D02*
X003244Y004116D01*
X003184Y004134D01*
X003126Y004156D01*
X003068Y004181D01*
X003012Y004209D01*
X002957Y004240D01*
X002905Y004274D01*
X002854Y004311D01*
X002805Y004350D01*
X003305Y004100D02*
X003367Y004088D01*
X003429Y004080D01*
X003492Y004075D01*
X003555Y004073D01*
X003618Y004075D01*
X003681Y004080D01*
X003743Y004088D01*
X003805Y004100D01*
X005855Y006700D02*
X005865Y006648D01*
X005879Y006597D01*
X005897Y006547D01*
X005918Y006499D01*
X005943Y006452D01*
X005971Y006408D01*
X006003Y006365D01*
X006037Y006325D01*
X006075Y006288D01*
X006115Y006254D01*
X006157Y006222D01*
X006202Y006194D01*
X006249Y006170D01*
X006297Y006149D01*
X006347Y006131D01*
X006398Y006118D01*
X006450Y006108D01*
X006502Y006102D01*
X006555Y006100D01*
X006608Y006102D01*
X006660Y006108D01*
X006712Y006118D01*
X006763Y006131D01*
X006813Y006149D01*
X006861Y006170D01*
X006908Y006194D01*
X006953Y006222D01*
X006995Y006254D01*
X007035Y006288D01*
X007073Y006325D01*
X007107Y006365D01*
X007139Y006408D01*
X007167Y006452D01*
X007192Y006499D01*
X007213Y006547D01*
X007231Y006597D01*
X007245Y006648D01*
X007255Y006700D01*
X007255Y008500D02*
X007245Y008552D01*
X007231Y008603D01*
X007213Y008653D01*
X007192Y008701D01*
X007167Y008748D01*
X007139Y008792D01*
X007107Y008835D01*
X007073Y008875D01*
X007035Y008912D01*
X006995Y008946D01*
X006953Y008978D01*
X006908Y009006D01*
X006861Y009030D01*
X006813Y009051D01*
X006763Y009069D01*
X006712Y009082D01*
X006660Y009092D01*
X006608Y009098D01*
X006555Y009100D01*
X006502Y009098D01*
X006450Y009092D01*
X006398Y009082D01*
X006347Y009069D01*
X006297Y009051D01*
X006249Y009030D01*
X006202Y009006D01*
X006157Y008978D01*
X006115Y008946D01*
X006075Y008912D01*
X006037Y008875D01*
X006003Y008835D01*
X005971Y008792D01*
X005943Y008748D01*
X005918Y008701D01*
X005897Y008653D01*
X005879Y008603D01*
X005865Y008552D01*
X005855Y008500D01*
X006305Y010100D02*
X006805Y010100D01*
X006805Y012100D02*
X006305Y012100D01*
X004665Y011765D02*
X004665Y012435D01*
X003445Y012435D01*
X003445Y011765D01*
X004665Y011765D01*
X004665Y011435D02*
X003445Y011435D01*
X003445Y010765D01*
X004665Y010765D01*
X004665Y011435D01*
X004665Y012765D02*
X003445Y012765D01*
X003445Y013435D01*
X004665Y013435D01*
X004665Y012765D01*
X005721Y013990D02*
X005721Y015210D01*
X006390Y015210D01*
X006390Y013990D01*
X005721Y013990D01*
X005100Y015200D02*
X004942Y015200D01*
X004880Y015750D02*
X003231Y015750D01*
X003168Y015200D02*
X003010Y015200D01*
X003942Y015200D02*
X004168Y015200D01*
X002055Y014850D02*
X002055Y014350D01*
X001805Y014100D01*
X002055Y013850D01*
X002055Y013350D01*
X001805Y013100D01*
X002055Y012850D01*
X002055Y012350D01*
X001805Y012100D01*
X002055Y011850D01*
X002055Y011350D01*
X001805Y011100D01*
X002055Y010850D01*
X002055Y010350D01*
X001805Y010100D01*
X002055Y009850D01*
X002055Y009350D01*
X001805Y009100D01*
X001305Y009100D01*
X001055Y009350D01*
X001055Y009850D01*
X001305Y010100D01*
X001055Y010350D01*
X001055Y010850D01*
X001305Y011100D01*
X001055Y011350D01*
X001055Y011850D01*
X001305Y012100D01*
X001055Y012350D01*
X001055Y012850D01*
X001305Y013100D01*
X001055Y013350D01*
X001055Y013850D01*
X001305Y014100D01*
X001055Y014350D01*
X001055Y014850D01*
X001305Y015100D01*
X001805Y015100D01*
X002055Y014850D01*
X003305Y017600D02*
X003805Y017600D01*
X004055Y017850D01*
X004305Y017600D01*
X004805Y017600D01*
X005055Y017850D01*
X005305Y017600D01*
X005805Y017600D01*
X006055Y017850D01*
X006305Y017600D01*
X006805Y017600D01*
X007055Y017850D01*
X007055Y018350D01*
X006805Y018600D01*
X006305Y018600D01*
X006055Y018350D01*
X005805Y018600D01*
X005305Y018600D01*
X005055Y018350D01*
X005055Y017850D01*
X005055Y018350D01*
X004805Y018600D01*
X004305Y018600D01*
X004055Y018350D01*
X003805Y018600D01*
X003305Y018600D01*
X003055Y018350D01*
X003055Y017850D01*
X003305Y017600D01*
X007055Y017850D02*
X007055Y018350D01*
X007305Y018600D01*
X007805Y018600D01*
X008055Y018350D01*
X008305Y018600D01*
X008805Y018600D01*
X009055Y018350D01*
X009305Y018600D01*
X009805Y018600D01*
X010055Y018350D01*
X010305Y018600D01*
X010805Y018600D01*
X011055Y018350D01*
X011305Y018600D01*
X011805Y018600D01*
X012055Y018350D01*
X012305Y018600D01*
X012805Y018600D01*
X013055Y018350D01*
X013055Y017850D01*
X012805Y017600D01*
X012305Y017600D01*
X012055Y017850D01*
X011805Y017600D01*
X011305Y017600D01*
X011055Y017850D01*
X011055Y018350D01*
X011055Y017850D01*
X010805Y017600D01*
X010305Y017600D01*
X010055Y017850D01*
X009805Y017600D01*
X009305Y017600D01*
X009055Y017850D01*
X009055Y018350D01*
X009055Y017850D01*
X008805Y017600D01*
X008305Y017600D01*
X008055Y017850D01*
X007805Y017600D01*
X007305Y017600D01*
X007055Y017850D01*
X008355Y016100D02*
X008355Y016000D01*
X008355Y016100D02*
X009055Y016100D01*
X009057Y016056D01*
X009063Y016013D01*
X009072Y015971D01*
X009085Y015929D01*
X009102Y015889D01*
X009122Y015850D01*
X009145Y015813D01*
X009172Y015779D01*
X009201Y015746D01*
X009234Y015717D01*
X009268Y015690D01*
X009305Y015667D01*
X009344Y015647D01*
X009384Y015630D01*
X009426Y015617D01*
X009468Y015608D01*
X009511Y015602D01*
X009555Y015600D01*
X009599Y015602D01*
X009642Y015608D01*
X009684Y015617D01*
X009726Y015630D01*
X009766Y015647D01*
X009805Y015667D01*
X009842Y015690D01*
X009876Y015717D01*
X009909Y015746D01*
X009938Y015779D01*
X009965Y015813D01*
X009988Y015850D01*
X010008Y015889D01*
X010025Y015929D01*
X010038Y015971D01*
X010047Y016013D01*
X010053Y016056D01*
X010055Y016100D01*
X010755Y016100D01*
X010755Y016000D01*
X013555Y016350D02*
X013555Y017850D01*
X013805Y018100D01*
X014305Y018100D01*
X014555Y017850D01*
X014555Y016350D01*
X014305Y016100D01*
X013805Y016100D01*
X013555Y016350D01*
X014555Y016350D02*
X014805Y016100D01*
X015305Y016100D01*
X015555Y016350D01*
X015555Y017850D01*
X015305Y018100D01*
X014805Y018100D01*
X014555Y017850D01*
X015555Y017850D02*
X015805Y018100D01*
X016305Y018100D01*
X016555Y017850D01*
X016555Y016350D01*
X016305Y016100D01*
X015805Y016100D01*
X015555Y016350D01*
X015805Y018232D02*
X016305Y018232D01*
X016805Y008850D02*
X017305Y008850D01*
X005855Y008500D02*
X005823Y008141D01*
X005807Y007780D01*
X005807Y007420D01*
X005823Y007059D01*
X005855Y006700D01*
X008355Y002200D02*
X008355Y002100D01*
X010755Y002100D01*
X010755Y002200D01*
X007255Y006700D02*
X007287Y007059D01*
X007303Y007420D01*
X007303Y007780D01*
X007287Y008141D01*
X007255Y008500D01*
D14*
X004449Y010584D02*
X003561Y010584D01*
X003520Y010956D02*
X003700Y011136D01*
X003700Y011181D01*
X003655Y011226D01*
X003565Y011226D01*
X003520Y011181D01*
X003520Y010956D02*
X003700Y010956D01*
X003815Y010956D02*
X003860Y010956D01*
X003860Y011001D01*
X003815Y011001D01*
X003815Y010956D01*
X003962Y010956D02*
X004142Y011136D01*
X004142Y011181D01*
X004097Y011226D01*
X004007Y011226D01*
X003962Y011181D01*
X003962Y010956D02*
X004142Y010956D01*
X004257Y010956D02*
X004257Y011226D01*
X004392Y011136D02*
X004257Y011046D01*
X004392Y010956D01*
X004244Y011956D02*
X004109Y012046D01*
X004244Y012136D01*
X004109Y012226D02*
X004109Y011956D01*
X003995Y012001D02*
X003995Y012046D01*
X003950Y012091D01*
X003815Y012091D01*
X003815Y012001D01*
X003860Y011956D01*
X003950Y011956D01*
X003995Y012001D01*
X003905Y012181D02*
X003815Y012091D01*
X003905Y012181D02*
X003995Y012226D01*
X003610Y012226D02*
X003610Y011956D01*
X003520Y011956D02*
X003700Y011956D01*
X003520Y012136D02*
X003610Y012226D01*
X003610Y012956D02*
X003610Y013226D01*
X003520Y013136D01*
X003520Y012956D02*
X003700Y012956D01*
X003815Y013001D02*
X003815Y013181D01*
X003860Y013226D01*
X003950Y013226D01*
X003995Y013181D01*
X003815Y013001D01*
X003860Y012956D01*
X003950Y012956D01*
X003995Y013001D01*
X003995Y013181D01*
X004109Y013181D02*
X004154Y013226D01*
X004244Y013226D01*
X004289Y013181D01*
X004109Y013001D01*
X004154Y012956D01*
X004244Y012956D01*
X004289Y013001D01*
X004289Y013181D01*
X004109Y013181D02*
X004109Y013001D01*
X005929Y014155D02*
X006199Y014155D01*
X006199Y014065D02*
X006199Y014245D01*
X006154Y014359D02*
X005974Y014540D01*
X006154Y014540D01*
X006199Y014495D01*
X006199Y014404D01*
X006154Y014359D01*
X005974Y014359D01*
X005929Y014404D01*
X005929Y014495D01*
X005974Y014540D01*
X005929Y014654D02*
X006199Y014654D01*
X006109Y014654D02*
X006019Y014789D01*
X006109Y014654D02*
X006199Y014789D01*
X005929Y014155D02*
X006019Y014065D01*
X004449Y010585D02*
X004512Y010557D01*
X004573Y010526D01*
X004633Y010492D01*
X004690Y010454D01*
X004745Y010413D01*
X004798Y010369D01*
X004848Y010322D01*
X004895Y010272D01*
X004940Y010219D01*
X004981Y010165D01*
X005019Y010107D01*
X005054Y010048D01*
X005085Y009987D01*
X005113Y009924D01*
X005137Y009859D01*
X005157Y009794D01*
X005173Y009727D01*
X005186Y009659D01*
X005194Y009591D01*
X005199Y009523D01*
X005200Y009454D01*
X005197Y009385D01*
X005189Y009317D01*
X005178Y009249D01*
X005164Y009182D01*
X005145Y009116D01*
X005122Y009051D01*
X005096Y008987D01*
X005066Y008925D01*
X005033Y008865D01*
X004996Y008807D01*
X004956Y008751D01*
X004913Y008698D01*
X004867Y008647D01*
X004818Y008599D01*
X004766Y008554D01*
X004712Y008511D01*
X004655Y008472D01*
X004596Y008437D01*
X004536Y008404D01*
X004473Y008376D01*
X004409Y008350D01*
X004344Y008329D01*
X004278Y008311D01*
X004210Y008298D01*
X004142Y008288D01*
X004074Y008282D01*
X004005Y008280D01*
X003936Y008282D01*
X003868Y008288D01*
X003800Y008298D01*
X003732Y008311D01*
X003666Y008329D01*
X003601Y008350D01*
X003537Y008376D01*
X003474Y008404D01*
X003414Y008437D01*
X003355Y008472D01*
X003298Y008511D01*
X003244Y008554D01*
X003192Y008599D01*
X003143Y008647D01*
X003097Y008698D01*
X003054Y008751D01*
X003014Y008807D01*
X002977Y008865D01*
X002944Y008925D01*
X002914Y008987D01*
X002888Y009051D01*
X002865Y009116D01*
X002846Y009182D01*
X002832Y009249D01*
X002821Y009317D01*
X002813Y009385D01*
X002810Y009454D01*
X002811Y009523D01*
X002816Y009591D01*
X002824Y009659D01*
X002837Y009727D01*
X002853Y009794D01*
X002873Y009859D01*
X002897Y009924D01*
X002925Y009987D01*
X002956Y010048D01*
X002991Y010107D01*
X003029Y010165D01*
X003070Y010219D01*
X003115Y010272D01*
X003162Y010322D01*
X003212Y010369D01*
X003265Y010413D01*
X003320Y010454D01*
X003377Y010492D01*
X003437Y010526D01*
X003498Y010557D01*
X003561Y010585D01*
X003596Y007744D02*
X003551Y007699D01*
X003551Y007654D01*
X003596Y007609D01*
X003731Y007609D01*
X003731Y007519D02*
X003731Y007699D01*
X003686Y007744D01*
X003596Y007744D01*
X003551Y007519D02*
X003596Y007474D01*
X003686Y007474D01*
X003731Y007519D01*
X003846Y007519D02*
X003891Y007474D01*
X003981Y007474D01*
X004026Y007519D01*
X004026Y007699D01*
X003846Y007519D01*
X003846Y007699D01*
X003891Y007744D01*
X003981Y007744D01*
X004026Y007699D01*
X003981Y006744D02*
X003891Y006744D01*
X003846Y006699D01*
X003846Y006519D01*
X004026Y006699D01*
X004026Y006519D01*
X003981Y006474D01*
X003891Y006474D01*
X003846Y006519D01*
X003731Y006519D02*
X003731Y006699D01*
X003686Y006744D01*
X003596Y006744D01*
X003551Y006699D01*
X003551Y006654D01*
X003596Y006609D01*
X003731Y006609D01*
X003731Y006519D02*
X003686Y006474D01*
X003596Y006474D01*
X003551Y006519D01*
X003981Y006744D02*
X004026Y006699D01*
X005474Y004834D02*
X005654Y004654D01*
X005699Y004699D01*
X005699Y004789D01*
X005654Y004834D01*
X005474Y004834D01*
X005429Y004789D01*
X005429Y004699D01*
X005474Y004654D01*
X005654Y004654D01*
X005654Y004540D02*
X005474Y004540D01*
X005654Y004359D01*
X005699Y004404D01*
X005699Y004495D01*
X005654Y004540D01*
X005474Y004540D02*
X005429Y004495D01*
X005429Y004404D01*
X005474Y004359D01*
X005654Y004359D01*
X005699Y004245D02*
X005699Y004065D01*
X005699Y004155D02*
X005429Y004155D01*
X005519Y004065D01*
X006429Y004200D02*
X006564Y004065D01*
X006564Y004245D01*
X006699Y004200D02*
X006429Y004200D01*
X006654Y004359D02*
X006654Y004404D01*
X006699Y004404D01*
X006699Y004359D01*
X006654Y004359D01*
X006654Y004507D02*
X006699Y004507D01*
X006654Y004507D02*
X006474Y004687D01*
X006429Y004687D01*
X006429Y004507D01*
X006429Y004801D02*
X006699Y004801D01*
X006609Y004801D02*
X006699Y004937D01*
X006609Y004801D02*
X006519Y004937D01*
X003789Y003181D02*
X003744Y003226D01*
X003654Y003226D01*
X003609Y003181D01*
X003495Y003226D02*
X003315Y003226D01*
X003315Y003091D01*
X003405Y003136D01*
X003450Y003136D01*
X003495Y003091D01*
X003495Y003001D01*
X003450Y002956D01*
X003360Y002956D01*
X003315Y003001D01*
X003200Y002956D02*
X003020Y002956D01*
X003110Y002956D02*
X003110Y003226D01*
X003020Y003136D01*
X003609Y002956D02*
X003789Y003136D01*
X003789Y003181D01*
X003789Y002956D02*
X003609Y002956D01*
X012497Y012065D02*
X012380Y012182D01*
X012730Y012182D01*
X012730Y012065D02*
X012730Y012299D01*
X012730Y012433D02*
X012380Y012433D01*
X012730Y012667D01*
X012380Y012667D01*
X012555Y012802D02*
X012555Y013035D01*
X012438Y013170D02*
X012380Y013228D01*
X012380Y013345D01*
X012438Y013404D01*
X012672Y013170D01*
X012730Y013228D01*
X012730Y013345D01*
X012672Y013404D01*
X012438Y013404D01*
X012438Y013538D02*
X012380Y013597D01*
X012380Y013714D01*
X012438Y013772D01*
X012672Y013538D01*
X012730Y013597D01*
X012730Y013714D01*
X012672Y013772D01*
X012438Y013772D01*
X012497Y013907D02*
X012380Y014023D01*
X012730Y014023D01*
X012730Y013907D02*
X012730Y014140D01*
X012672Y013538D02*
X012438Y013538D01*
X012438Y013170D02*
X012672Y013170D01*
X012730Y012977D02*
X012380Y012977D01*
X012555Y012802D01*
D15*
X003200Y015767D02*
X003255Y015724D01*
X003219Y015675D01*
X003185Y015624D01*
X003156Y015570D01*
X003129Y015515D01*
X003105Y015459D01*
X003086Y015401D01*
X003069Y015342D01*
X003056Y015282D01*
X003047Y015222D01*
X003042Y015161D01*
X003040Y015099D01*
X003042Y015038D01*
X003047Y014977D01*
X003057Y014917D01*
X003070Y014857D01*
X003086Y014798D01*
X003106Y014740D01*
X003129Y014684D01*
X003156Y014629D01*
X003186Y014575D01*
X003219Y014524D01*
X003255Y014475D01*
X003295Y014428D01*
X003336Y014383D01*
X003381Y014341D01*
X003428Y014302D01*
X003477Y014266D01*
X003528Y014232D01*
X003582Y014202D01*
X003637Y014175D01*
X003693Y014152D01*
X003751Y014132D01*
X003731Y014065D01*
X003730Y014065D01*
X003669Y014086D01*
X003608Y014111D01*
X003549Y014140D01*
X003492Y014172D01*
X003438Y014208D01*
X003385Y014247D01*
X003335Y014289D01*
X003287Y014334D01*
X003242Y014381D01*
X003200Y014431D01*
X003162Y014484D01*
X003126Y014539D01*
X003094Y014596D01*
X003065Y014655D01*
X003040Y014715D01*
X003019Y014777D01*
X003002Y014840D01*
X002988Y014904D01*
X002978Y014969D01*
X002972Y015034D01*
X002970Y015100D01*
X002972Y015165D01*
X002978Y015230D01*
X002988Y015295D01*
X003001Y015359D01*
X003019Y015422D01*
X003040Y015484D01*
X003065Y015544D01*
X003094Y015603D01*
X003126Y015660D01*
X003161Y015715D01*
X003200Y015768D01*
X003207Y015762D01*
X003169Y015710D01*
X003133Y015655D01*
X003102Y015599D01*
X003073Y015540D01*
X003048Y015480D01*
X003027Y015419D01*
X003010Y015357D01*
X002996Y015293D01*
X002987Y015229D01*
X002981Y015164D01*
X002979Y015099D01*
X002981Y015035D01*
X002987Y014970D01*
X002997Y014906D01*
X003010Y014842D01*
X003028Y014780D01*
X003049Y014719D01*
X003074Y014659D01*
X003102Y014600D01*
X003134Y014544D01*
X003169Y014489D01*
X003207Y014437D01*
X003249Y014387D01*
X003293Y014340D01*
X003341Y014295D01*
X003390Y014254D01*
X003443Y014215D01*
X003497Y014180D01*
X003554Y014148D01*
X003612Y014120D01*
X003672Y014095D01*
X003733Y014073D01*
X003736Y014082D01*
X003675Y014103D01*
X003615Y014128D01*
X003558Y014156D01*
X003502Y014188D01*
X003448Y014223D01*
X003396Y014261D01*
X003347Y014302D01*
X003300Y014346D01*
X003256Y014393D01*
X003215Y014443D01*
X003176Y014494D01*
X003142Y014548D01*
X003110Y014605D01*
X003082Y014662D01*
X003057Y014722D01*
X003036Y014783D01*
X003019Y014845D01*
X003006Y014908D01*
X002996Y014971D01*
X002990Y015035D01*
X002988Y015099D01*
X002990Y015164D01*
X002996Y015228D01*
X003005Y015291D01*
X003019Y015354D01*
X003036Y015416D01*
X003057Y015477D01*
X003081Y015537D01*
X003110Y015595D01*
X003141Y015651D01*
X003176Y015705D01*
X003214Y015757D01*
X003221Y015751D01*
X003183Y015700D01*
X003149Y015646D01*
X003117Y015590D01*
X003090Y015533D01*
X003065Y015474D01*
X003045Y015414D01*
X003028Y015352D01*
X003014Y015290D01*
X003005Y015227D01*
X002999Y015163D01*
X002997Y015099D01*
X002999Y015036D01*
X003005Y014972D01*
X003014Y014909D01*
X003028Y014847D01*
X003045Y014785D01*
X003066Y014725D01*
X003090Y014666D01*
X003118Y014609D01*
X003149Y014553D01*
X003184Y014500D01*
X003222Y014448D01*
X003262Y014399D01*
X003306Y014353D01*
X003353Y014309D01*
X003401Y014268D01*
X003453Y014230D01*
X003506Y014195D01*
X003562Y014164D01*
X003619Y014136D01*
X003678Y014111D01*
X003738Y014091D01*
X003741Y014099D01*
X003681Y014120D01*
X003623Y014144D01*
X003566Y014172D01*
X003511Y014203D01*
X003458Y014238D01*
X003407Y014275D01*
X003358Y014316D01*
X003312Y014359D01*
X003269Y014405D01*
X003229Y014454D01*
X003191Y014505D01*
X003157Y014558D01*
X003126Y014613D01*
X003098Y014670D01*
X003074Y014728D01*
X003053Y014788D01*
X003036Y014849D01*
X003023Y014911D01*
X003014Y014973D01*
X003008Y015036D01*
X003006Y015099D01*
X003008Y015163D01*
X003014Y015226D01*
X003023Y015288D01*
X003036Y015350D01*
X003053Y015411D01*
X003074Y015471D01*
X003098Y015529D01*
X003125Y015586D01*
X003156Y015641D01*
X003191Y015694D01*
X003228Y015745D01*
X003235Y015740D01*
X003198Y015689D01*
X003164Y015637D01*
X003133Y015582D01*
X003106Y015526D01*
X003082Y015468D01*
X003062Y015408D01*
X003045Y015348D01*
X003032Y015287D01*
X003022Y015225D01*
X003017Y015162D01*
X003015Y015099D01*
X003017Y015037D01*
X003023Y014974D01*
X003032Y014912D01*
X003045Y014851D01*
X003062Y014791D01*
X003083Y014731D01*
X003106Y014673D01*
X003134Y014617D01*
X003165Y014562D01*
X003199Y014510D01*
X003236Y014459D01*
X003276Y014411D01*
X003319Y014365D01*
X003364Y014322D01*
X003413Y014282D01*
X003463Y014245D01*
X003516Y014211D01*
X003570Y014180D01*
X003626Y014152D01*
X003684Y014128D01*
X003744Y014108D01*
X003746Y014116D01*
X003688Y014137D01*
X003630Y014161D01*
X003574Y014188D01*
X003520Y014219D01*
X003468Y014252D01*
X003418Y014289D01*
X003370Y014329D01*
X003325Y014372D01*
X003283Y014417D01*
X003243Y014465D01*
X003206Y014515D01*
X003172Y014567D01*
X003142Y014621D01*
X003115Y014677D01*
X003091Y014735D01*
X003071Y014793D01*
X003054Y014853D01*
X003041Y014914D01*
X003032Y014975D01*
X003026Y015037D01*
X003024Y015099D01*
X003026Y015162D01*
X003031Y015223D01*
X003041Y015285D01*
X003054Y015346D01*
X003070Y015406D01*
X003091Y015464D01*
X003114Y015522D01*
X003141Y015578D01*
X003172Y015632D01*
X003205Y015684D01*
X003242Y015734D01*
X003249Y015729D01*
X003213Y015679D01*
X003180Y015627D01*
X003149Y015574D01*
X003122Y015518D01*
X003099Y015461D01*
X003079Y015403D01*
X003062Y015344D01*
X003050Y015283D01*
X003040Y015222D01*
X003035Y015161D01*
X003033Y015099D01*
X003035Y015038D01*
X003040Y014977D01*
X003050Y014916D01*
X003063Y014855D01*
X003079Y014796D01*
X003099Y014738D01*
X003123Y014681D01*
X003150Y014625D01*
X003180Y014572D01*
X003213Y014520D01*
X003250Y014470D01*
X003289Y014423D01*
X003332Y014378D01*
X003376Y014336D01*
X003424Y014296D01*
X003473Y014260D01*
X003525Y014226D01*
X003579Y014196D01*
X003634Y014169D01*
X003691Y014145D01*
X003749Y014125D01*
X004379Y014065D02*
X004359Y014132D01*
X004417Y014152D01*
X004473Y014175D01*
X004528Y014202D01*
X004581Y014232D01*
X004633Y014266D01*
X004682Y014302D01*
X004729Y014341D01*
X004773Y014383D01*
X004815Y014428D01*
X004855Y014475D01*
X004891Y014524D01*
X004924Y014575D01*
X004954Y014629D01*
X004981Y014684D01*
X005004Y014740D01*
X005024Y014798D01*
X005040Y014857D01*
X005053Y014917D01*
X005063Y014977D01*
X005068Y015038D01*
X005070Y015099D01*
X005068Y015161D01*
X005063Y015222D01*
X005054Y015282D01*
X005041Y015342D01*
X005024Y015401D01*
X005005Y015459D01*
X004981Y015515D01*
X004954Y015570D01*
X004925Y015624D01*
X004891Y015675D01*
X004855Y015724D01*
X004910Y015767D01*
X004910Y015768D01*
X004949Y015715D01*
X004984Y015660D01*
X005016Y015603D01*
X005045Y015544D01*
X005070Y015484D01*
X005091Y015422D01*
X005109Y015359D01*
X005122Y015295D01*
X005132Y015230D01*
X005138Y015165D01*
X005140Y015099D01*
X005138Y015034D01*
X005132Y014969D01*
X005122Y014904D01*
X005108Y014840D01*
X005091Y014777D01*
X005070Y014715D01*
X005045Y014655D01*
X005016Y014596D01*
X004984Y014539D01*
X004948Y014484D01*
X004910Y014431D01*
X004868Y014381D01*
X004823Y014334D01*
X004775Y014289D01*
X004725Y014247D01*
X004672Y014208D01*
X004618Y014172D01*
X004561Y014140D01*
X004502Y014111D01*
X004441Y014086D01*
X004380Y014065D01*
X004377Y014073D01*
X004438Y014095D01*
X004498Y014120D01*
X004556Y014148D01*
X004613Y014180D01*
X004667Y014215D01*
X004720Y014254D01*
X004769Y014295D01*
X004817Y014340D01*
X004861Y014387D01*
X004902Y014437D01*
X004941Y014489D01*
X004976Y014544D01*
X005008Y014600D01*
X005036Y014659D01*
X005061Y014719D01*
X005082Y014780D01*
X005100Y014842D01*
X005113Y014906D01*
X005123Y014970D01*
X005129Y015035D01*
X005131Y015099D01*
X005129Y015164D01*
X005123Y015229D01*
X005114Y015293D01*
X005100Y015357D01*
X005083Y015419D01*
X005062Y015480D01*
X005037Y015540D01*
X005008Y015599D01*
X004977Y015655D01*
X004942Y015710D01*
X004903Y015762D01*
X004896Y015757D01*
X004934Y015705D01*
X004969Y015651D01*
X005000Y015595D01*
X005029Y015537D01*
X005053Y015477D01*
X005074Y015416D01*
X005091Y015354D01*
X005105Y015291D01*
X005114Y015228D01*
X005120Y015164D01*
X005122Y015099D01*
X005120Y015035D01*
X005114Y014971D01*
X005104Y014908D01*
X005091Y014845D01*
X005074Y014783D01*
X005053Y014722D01*
X005028Y014662D01*
X005000Y014605D01*
X004968Y014548D01*
X004934Y014494D01*
X004895Y014443D01*
X004854Y014393D01*
X004810Y014346D01*
X004763Y014302D01*
X004714Y014261D01*
X004662Y014223D01*
X004608Y014188D01*
X004552Y014156D01*
X004495Y014128D01*
X004435Y014103D01*
X004374Y014082D01*
X004372Y014091D01*
X004432Y014111D01*
X004491Y014136D01*
X004548Y014164D01*
X004604Y014195D01*
X004657Y014230D01*
X004709Y014268D01*
X004757Y014309D01*
X004804Y014353D01*
X004848Y014399D01*
X004888Y014448D01*
X004926Y014500D01*
X004961Y014553D01*
X004992Y014609D01*
X005020Y014666D01*
X005044Y014725D01*
X005065Y014785D01*
X005082Y014847D01*
X005096Y014909D01*
X005105Y014972D01*
X005111Y015036D01*
X005113Y015099D01*
X005111Y015163D01*
X005105Y015227D01*
X005096Y015290D01*
X005083Y015352D01*
X005065Y015414D01*
X005045Y015474D01*
X005020Y015533D01*
X004993Y015590D01*
X004961Y015646D01*
X004927Y015700D01*
X004889Y015751D01*
X004882Y015745D01*
X004919Y015694D01*
X004954Y015641D01*
X004985Y015586D01*
X005012Y015529D01*
X005036Y015471D01*
X005057Y015411D01*
X005074Y015350D01*
X005087Y015288D01*
X005096Y015226D01*
X005102Y015163D01*
X005104Y015099D01*
X005102Y015036D01*
X005096Y014973D01*
X005087Y014911D01*
X005074Y014849D01*
X005057Y014788D01*
X005036Y014728D01*
X005012Y014670D01*
X004984Y014613D01*
X004953Y014558D01*
X004919Y014505D01*
X004881Y014454D01*
X004841Y014405D01*
X004798Y014359D01*
X004752Y014316D01*
X004703Y014275D01*
X004652Y014238D01*
X004599Y014203D01*
X004544Y014172D01*
X004487Y014144D01*
X004429Y014120D01*
X004369Y014099D01*
X004366Y014108D01*
X004426Y014128D01*
X004483Y014152D01*
X004540Y014180D01*
X004594Y014211D01*
X004647Y014245D01*
X004697Y014282D01*
X004746Y014322D01*
X004791Y014365D01*
X004834Y014411D01*
X004874Y014459D01*
X004911Y014510D01*
X004945Y014562D01*
X004976Y014617D01*
X005004Y014673D01*
X005027Y014731D01*
X005048Y014791D01*
X005065Y014851D01*
X005078Y014912D01*
X005087Y014974D01*
X005093Y015037D01*
X005095Y015099D01*
X005093Y015162D01*
X005088Y015225D01*
X005078Y015287D01*
X005065Y015348D01*
X005048Y015408D01*
X005028Y015468D01*
X005004Y015526D01*
X004977Y015582D01*
X004946Y015637D01*
X004912Y015689D01*
X004875Y015740D01*
X004868Y015734D01*
X004905Y015684D01*
X004938Y015632D01*
X004969Y015578D01*
X004996Y015522D01*
X005019Y015464D01*
X005040Y015406D01*
X005056Y015346D01*
X005069Y015285D01*
X005079Y015223D01*
X005084Y015162D01*
X005086Y015099D01*
X005084Y015037D01*
X005078Y014975D01*
X005069Y014914D01*
X005056Y014853D01*
X005039Y014793D01*
X005019Y014735D01*
X004995Y014677D01*
X004968Y014621D01*
X004938Y014567D01*
X004904Y014515D01*
X004867Y014465D01*
X004827Y014417D01*
X004785Y014372D01*
X004740Y014329D01*
X004692Y014289D01*
X004642Y014252D01*
X004590Y014219D01*
X004536Y014188D01*
X004480Y014161D01*
X004422Y014137D01*
X004364Y014116D01*
X004361Y014125D01*
X004419Y014145D01*
X004476Y014169D01*
X004531Y014196D01*
X004585Y014226D01*
X004637Y014260D01*
X004686Y014296D01*
X004734Y014336D01*
X004778Y014378D01*
X004821Y014423D01*
X004860Y014470D01*
X004896Y014520D01*
X004930Y014572D01*
X004960Y014625D01*
X004987Y014681D01*
X005011Y014738D01*
X005031Y014796D01*
X005047Y014855D01*
X005060Y014916D01*
X005070Y014976D01*
X005075Y015038D01*
X005077Y015099D01*
X005075Y015161D01*
X005070Y015222D01*
X005060Y015283D01*
X005048Y015344D01*
X005031Y015403D01*
X005011Y015461D01*
X004988Y015518D01*
X004961Y015574D01*
X004931Y015627D01*
X004897Y015679D01*
X004861Y015729D01*
X002700Y005767D02*
X002755Y005724D01*
X002719Y005675D01*
X002685Y005624D01*
X002656Y005570D01*
X002629Y005515D01*
X002605Y005459D01*
X002586Y005401D01*
X002569Y005342D01*
X002556Y005282D01*
X002547Y005222D01*
X002542Y005161D01*
X002540Y005099D01*
X002542Y005038D01*
X002547Y004977D01*
X002557Y004917D01*
X002570Y004857D01*
X002586Y004798D01*
X002606Y004740D01*
X002629Y004684D01*
X002656Y004629D01*
X002686Y004575D01*
X002719Y004524D01*
X002755Y004475D01*
X002795Y004428D01*
X002836Y004383D01*
X002881Y004341D01*
X002928Y004302D01*
X002977Y004266D01*
X003028Y004232D01*
X003082Y004202D01*
X003137Y004175D01*
X003193Y004152D01*
X003251Y004132D01*
X003231Y004065D01*
X003230Y004065D01*
X003169Y004086D01*
X003108Y004111D01*
X003049Y004140D01*
X002992Y004172D01*
X002938Y004208D01*
X002885Y004247D01*
X002835Y004289D01*
X002787Y004334D01*
X002742Y004381D01*
X002700Y004431D01*
X002662Y004484D01*
X002626Y004539D01*
X002594Y004596D01*
X002565Y004655D01*
X002540Y004715D01*
X002519Y004777D01*
X002502Y004840D01*
X002488Y004904D01*
X002478Y004969D01*
X002472Y005034D01*
X002470Y005100D01*
X002472Y005165D01*
X002478Y005230D01*
X002488Y005295D01*
X002501Y005359D01*
X002519Y005422D01*
X002540Y005484D01*
X002565Y005544D01*
X002594Y005603D01*
X002626Y005660D01*
X002661Y005715D01*
X002700Y005768D01*
X002707Y005762D01*
X002669Y005710D01*
X002633Y005655D01*
X002602Y005599D01*
X002573Y005540D01*
X002548Y005480D01*
X002527Y005419D01*
X002510Y005357D01*
X002496Y005293D01*
X002487Y005229D01*
X002481Y005164D01*
X002479Y005099D01*
X002481Y005035D01*
X002487Y004970D01*
X002497Y004906D01*
X002510Y004842D01*
X002528Y004780D01*
X002549Y004719D01*
X002574Y004659D01*
X002602Y004600D01*
X002634Y004544D01*
X002669Y004489D01*
X002707Y004437D01*
X002749Y004387D01*
X002793Y004340D01*
X002841Y004295D01*
X002890Y004254D01*
X002943Y004215D01*
X002997Y004180D01*
X003054Y004148D01*
X003112Y004120D01*
X003172Y004095D01*
X003233Y004073D01*
X003236Y004082D01*
X003175Y004103D01*
X003115Y004128D01*
X003058Y004156D01*
X003002Y004188D01*
X002948Y004223D01*
X002896Y004261D01*
X002847Y004302D01*
X002800Y004346D01*
X002756Y004393D01*
X002715Y004443D01*
X002676Y004494D01*
X002642Y004548D01*
X002610Y004605D01*
X002582Y004662D01*
X002557Y004722D01*
X002536Y004783D01*
X002519Y004845D01*
X002506Y004908D01*
X002496Y004971D01*
X002490Y005035D01*
X002488Y005099D01*
X002490Y005164D01*
X002496Y005228D01*
X002505Y005291D01*
X002519Y005354D01*
X002536Y005416D01*
X002557Y005477D01*
X002581Y005537D01*
X002610Y005595D01*
X002641Y005651D01*
X002676Y005705D01*
X002714Y005757D01*
X002721Y005751D01*
X002683Y005700D01*
X002649Y005646D01*
X002617Y005590D01*
X002590Y005533D01*
X002565Y005474D01*
X002545Y005414D01*
X002528Y005352D01*
X002514Y005290D01*
X002505Y005227D01*
X002499Y005163D01*
X002497Y005099D01*
X002499Y005036D01*
X002505Y004972D01*
X002514Y004909D01*
X002528Y004847D01*
X002545Y004785D01*
X002566Y004725D01*
X002590Y004666D01*
X002618Y004609D01*
X002649Y004553D01*
X002684Y004500D01*
X002722Y004448D01*
X002762Y004399D01*
X002806Y004353D01*
X002853Y004309D01*
X002901Y004268D01*
X002953Y004230D01*
X003006Y004195D01*
X003062Y004164D01*
X003119Y004136D01*
X003178Y004111D01*
X003238Y004091D01*
X003241Y004099D01*
X003181Y004120D01*
X003123Y004144D01*
X003066Y004172D01*
X003011Y004203D01*
X002958Y004238D01*
X002907Y004275D01*
X002858Y004316D01*
X002812Y004359D01*
X002769Y004405D01*
X002729Y004454D01*
X002691Y004505D01*
X002657Y004558D01*
X002626Y004613D01*
X002598Y004670D01*
X002574Y004728D01*
X002553Y004788D01*
X002536Y004849D01*
X002523Y004911D01*
X002514Y004973D01*
X002508Y005036D01*
X002506Y005099D01*
X002508Y005163D01*
X002514Y005226D01*
X002523Y005288D01*
X002536Y005350D01*
X002553Y005411D01*
X002574Y005471D01*
X002598Y005529D01*
X002625Y005586D01*
X002656Y005641D01*
X002691Y005694D01*
X002728Y005745D01*
X002735Y005740D01*
X002698Y005689D01*
X002664Y005637D01*
X002633Y005582D01*
X002606Y005526D01*
X002582Y005468D01*
X002562Y005408D01*
X002545Y005348D01*
X002532Y005287D01*
X002522Y005225D01*
X002517Y005162D01*
X002515Y005099D01*
X002517Y005037D01*
X002523Y004974D01*
X002532Y004912D01*
X002545Y004851D01*
X002562Y004791D01*
X002583Y004731D01*
X002606Y004673D01*
X002634Y004617D01*
X002665Y004562D01*
X002699Y004510D01*
X002736Y004459D01*
X002776Y004411D01*
X002819Y004365D01*
X002864Y004322D01*
X002913Y004282D01*
X002963Y004245D01*
X003016Y004211D01*
X003070Y004180D01*
X003126Y004152D01*
X003184Y004128D01*
X003244Y004108D01*
X003246Y004116D01*
X003188Y004137D01*
X003130Y004161D01*
X003074Y004188D01*
X003020Y004219D01*
X002968Y004252D01*
X002918Y004289D01*
X002870Y004329D01*
X002825Y004372D01*
X002783Y004417D01*
X002743Y004465D01*
X002706Y004515D01*
X002672Y004567D01*
X002642Y004621D01*
X002615Y004677D01*
X002591Y004735D01*
X002571Y004793D01*
X002554Y004853D01*
X002541Y004914D01*
X002532Y004975D01*
X002526Y005037D01*
X002524Y005099D01*
X002526Y005162D01*
X002531Y005223D01*
X002541Y005285D01*
X002554Y005346D01*
X002570Y005406D01*
X002591Y005464D01*
X002614Y005522D01*
X002641Y005578D01*
X002672Y005632D01*
X002705Y005684D01*
X002742Y005734D01*
X002749Y005729D01*
X002713Y005679D01*
X002680Y005627D01*
X002649Y005574D01*
X002622Y005518D01*
X002599Y005461D01*
X002579Y005403D01*
X002562Y005344D01*
X002550Y005283D01*
X002540Y005222D01*
X002535Y005161D01*
X002533Y005099D01*
X002535Y005038D01*
X002540Y004977D01*
X002550Y004916D01*
X002563Y004855D01*
X002579Y004796D01*
X002599Y004738D01*
X002623Y004681D01*
X002650Y004625D01*
X002680Y004572D01*
X002713Y004520D01*
X002750Y004470D01*
X002789Y004423D01*
X002832Y004378D01*
X002876Y004336D01*
X002924Y004296D01*
X002973Y004260D01*
X003025Y004226D01*
X003079Y004196D01*
X003134Y004169D01*
X003191Y004145D01*
X003249Y004125D01*
X003879Y004065D02*
X003859Y004132D01*
X003917Y004152D01*
X003973Y004175D01*
X004028Y004202D01*
X004081Y004232D01*
X004133Y004266D01*
X004182Y004302D01*
X004229Y004341D01*
X004273Y004383D01*
X004315Y004428D01*
X004355Y004475D01*
X004391Y004524D01*
X004424Y004575D01*
X004454Y004629D01*
X004481Y004684D01*
X004504Y004740D01*
X004524Y004798D01*
X004540Y004857D01*
X004553Y004917D01*
X004563Y004977D01*
X004568Y005038D01*
X004570Y005099D01*
X004568Y005161D01*
X004563Y005222D01*
X004554Y005282D01*
X004541Y005342D01*
X004524Y005401D01*
X004505Y005459D01*
X004481Y005515D01*
X004454Y005570D01*
X004425Y005624D01*
X004391Y005675D01*
X004355Y005724D01*
X004410Y005767D01*
X004410Y005768D01*
X004449Y005715D01*
X004484Y005660D01*
X004516Y005603D01*
X004545Y005544D01*
X004570Y005484D01*
X004591Y005422D01*
X004609Y005359D01*
X004622Y005295D01*
X004632Y005230D01*
X004638Y005165D01*
X004640Y005099D01*
X004638Y005034D01*
X004632Y004969D01*
X004622Y004904D01*
X004608Y004840D01*
X004591Y004777D01*
X004570Y004715D01*
X004545Y004655D01*
X004516Y004596D01*
X004484Y004539D01*
X004448Y004484D01*
X004410Y004431D01*
X004368Y004381D01*
X004323Y004334D01*
X004275Y004289D01*
X004225Y004247D01*
X004172Y004208D01*
X004118Y004172D01*
X004061Y004140D01*
X004002Y004111D01*
X003941Y004086D01*
X003880Y004065D01*
X003877Y004073D01*
X003938Y004095D01*
X003998Y004120D01*
X004056Y004148D01*
X004113Y004180D01*
X004167Y004215D01*
X004220Y004254D01*
X004269Y004295D01*
X004317Y004340D01*
X004361Y004387D01*
X004402Y004437D01*
X004441Y004489D01*
X004476Y004544D01*
X004508Y004600D01*
X004536Y004659D01*
X004561Y004719D01*
X004582Y004780D01*
X004600Y004842D01*
X004613Y004906D01*
X004623Y004970D01*
X004629Y005035D01*
X004631Y005099D01*
X004629Y005164D01*
X004623Y005229D01*
X004614Y005293D01*
X004600Y005357D01*
X004583Y005419D01*
X004562Y005480D01*
X004537Y005540D01*
X004508Y005599D01*
X004477Y005655D01*
X004442Y005710D01*
X004403Y005762D01*
X004396Y005757D01*
X004434Y005705D01*
X004469Y005651D01*
X004500Y005595D01*
X004529Y005537D01*
X004553Y005477D01*
X004574Y005416D01*
X004591Y005354D01*
X004605Y005291D01*
X004614Y005228D01*
X004620Y005164D01*
X004622Y005099D01*
X004620Y005035D01*
X004614Y004971D01*
X004604Y004908D01*
X004591Y004845D01*
X004574Y004783D01*
X004553Y004722D01*
X004528Y004662D01*
X004500Y004605D01*
X004468Y004548D01*
X004434Y004494D01*
X004395Y004443D01*
X004354Y004393D01*
X004310Y004346D01*
X004263Y004302D01*
X004214Y004261D01*
X004162Y004223D01*
X004108Y004188D01*
X004052Y004156D01*
X003995Y004128D01*
X003935Y004103D01*
X003874Y004082D01*
X003872Y004091D01*
X003932Y004111D01*
X003991Y004136D01*
X004048Y004164D01*
X004104Y004195D01*
X004157Y004230D01*
X004209Y004268D01*
X004257Y004309D01*
X004304Y004353D01*
X004348Y004399D01*
X004388Y004448D01*
X004426Y004500D01*
X004461Y004553D01*
X004492Y004609D01*
X004520Y004666D01*
X004544Y004725D01*
X004565Y004785D01*
X004582Y004847D01*
X004596Y004909D01*
X004605Y004972D01*
X004611Y005036D01*
X004613Y005099D01*
X004611Y005163D01*
X004605Y005227D01*
X004596Y005290D01*
X004583Y005352D01*
X004565Y005414D01*
X004545Y005474D01*
X004520Y005533D01*
X004493Y005590D01*
X004461Y005646D01*
X004427Y005700D01*
X004389Y005751D01*
X004382Y005745D01*
X004419Y005694D01*
X004454Y005641D01*
X004485Y005586D01*
X004512Y005529D01*
X004536Y005471D01*
X004557Y005411D01*
X004574Y005350D01*
X004587Y005288D01*
X004596Y005226D01*
X004602Y005163D01*
X004604Y005099D01*
X004602Y005036D01*
X004596Y004973D01*
X004587Y004911D01*
X004574Y004849D01*
X004557Y004788D01*
X004536Y004728D01*
X004512Y004670D01*
X004484Y004613D01*
X004453Y004558D01*
X004419Y004505D01*
X004381Y004454D01*
X004341Y004405D01*
X004298Y004359D01*
X004252Y004316D01*
X004203Y004275D01*
X004152Y004238D01*
X004099Y004203D01*
X004044Y004172D01*
X003987Y004144D01*
X003929Y004120D01*
X003869Y004099D01*
X003866Y004108D01*
X003926Y004128D01*
X003983Y004152D01*
X004040Y004180D01*
X004094Y004211D01*
X004147Y004245D01*
X004197Y004282D01*
X004246Y004322D01*
X004291Y004365D01*
X004334Y004411D01*
X004374Y004459D01*
X004411Y004510D01*
X004445Y004562D01*
X004476Y004617D01*
X004504Y004673D01*
X004527Y004731D01*
X004548Y004791D01*
X004565Y004851D01*
X004578Y004912D01*
X004587Y004974D01*
X004593Y005037D01*
X004595Y005099D01*
X004593Y005162D01*
X004588Y005225D01*
X004578Y005287D01*
X004565Y005348D01*
X004548Y005408D01*
X004528Y005468D01*
X004504Y005526D01*
X004477Y005582D01*
X004446Y005637D01*
X004412Y005689D01*
X004375Y005740D01*
X004368Y005734D01*
X004405Y005684D01*
X004438Y005632D01*
X004469Y005578D01*
X004496Y005522D01*
X004519Y005464D01*
X004540Y005406D01*
X004556Y005346D01*
X004569Y005285D01*
X004579Y005223D01*
X004584Y005162D01*
X004586Y005099D01*
X004584Y005037D01*
X004578Y004975D01*
X004569Y004914D01*
X004556Y004853D01*
X004539Y004793D01*
X004519Y004735D01*
X004495Y004677D01*
X004468Y004621D01*
X004438Y004567D01*
X004404Y004515D01*
X004367Y004465D01*
X004327Y004417D01*
X004285Y004372D01*
X004240Y004329D01*
X004192Y004289D01*
X004142Y004252D01*
X004090Y004219D01*
X004036Y004188D01*
X003980Y004161D01*
X003922Y004137D01*
X003864Y004116D01*
X003861Y004125D01*
X003919Y004145D01*
X003976Y004169D01*
X004031Y004196D01*
X004085Y004226D01*
X004137Y004260D01*
X004186Y004296D01*
X004234Y004336D01*
X004278Y004378D01*
X004321Y004423D01*
X004360Y004470D01*
X004396Y004520D01*
X004430Y004572D01*
X004460Y004625D01*
X004487Y004681D01*
X004511Y004738D01*
X004531Y004796D01*
X004547Y004855D01*
X004560Y004916D01*
X004570Y004976D01*
X004575Y005038D01*
X004577Y005099D01*
X004575Y005161D01*
X004570Y005222D01*
X004560Y005283D01*
X004548Y005344D01*
X004531Y005403D01*
X004511Y005461D01*
X004488Y005518D01*
X004461Y005574D01*
X004431Y005627D01*
X004397Y005679D01*
X004361Y005729D01*
D16*
X012555Y006850D02*
X012555Y008350D01*
X012805Y008600D01*
X013305Y008600D01*
X013555Y008350D01*
X013555Y006850D01*
X013305Y006600D01*
X012805Y006600D01*
X012555Y006850D01*
X013555Y006850D02*
X013805Y006600D01*
X014305Y006600D01*
X014555Y006850D01*
X014555Y008350D01*
X014305Y008600D01*
X013805Y008600D01*
X013555Y008350D01*
X014555Y008350D02*
X014805Y008600D01*
X015305Y008600D01*
X015555Y008350D01*
X015555Y006850D01*
X015305Y006600D01*
X014805Y006600D01*
X014555Y006850D01*
X015555Y006850D02*
X015805Y006600D01*
X016305Y006600D01*
X016555Y006850D01*
X016555Y008350D01*
X016305Y008600D01*
X015805Y008600D01*
X015555Y008350D01*
X016555Y008350D02*
X016805Y008600D01*
X017305Y008600D01*
X017555Y008350D01*
X017555Y006850D01*
X017305Y006600D01*
X016805Y006600D01*
X016555Y006850D01*
D17*
X015055Y008100D03*
D18*
X012555Y011600D02*
X012555Y011850D01*
X013055Y011850D01*
X013055Y012350D01*
X012055Y012350D01*
X012055Y011850D01*
X012555Y011850D01*
X012055Y012350D02*
X012055Y014350D01*
X012555Y014350D01*
X012555Y014600D01*
X012555Y014350D02*
X013055Y014350D01*
X013055Y012350D01*
M02*
