G75*
G70*
%OFA0B0*%
%FSLAX24Y24*%
%IPPOS*%
%LPD*%
%AMOC8*
5,1,8,0,0,1.08239X$1,22.5*
%
%ADD10C,0.0660*%
%ADD11C,0.0740*%
%ADD12OC8,0.0740*%
%ADD13C,0.0780*%
%ADD14C,0.0480*%
%ADD15C,0.0650*%
%ADD16C,0.0450*%
%ADD17C,0.0100*%
%ADD18C,0.0400*%
D10*
X002571Y003100D03*
X004539Y003100D03*
X005555Y003616D03*
X006555Y003616D03*
X006555Y005584D03*
X005555Y005584D03*
X004539Y006600D03*
X004539Y007600D03*
X002571Y007600D03*
X002571Y006600D03*
X003071Y011100D03*
X003071Y012100D03*
X003071Y013100D03*
X005039Y013100D03*
X005039Y012100D03*
X005039Y011100D03*
X006055Y013616D03*
X006055Y015584D03*
D11*
X004555Y015100D03*
X004055Y014350D03*
X003555Y015100D03*
X001555Y014600D03*
X001555Y013600D03*
X001555Y012600D03*
X001555Y011600D03*
X001555Y010600D03*
X001555Y009600D03*
X001555Y007600D03*
X001555Y006600D03*
X002555Y005100D03*
X003555Y005100D03*
X004555Y005100D03*
X006555Y006600D03*
X006555Y007600D03*
X006555Y008600D03*
X006555Y001100D03*
X005555Y001100D03*
X004555Y001100D03*
X007555Y001100D03*
X008555Y001100D03*
X018555Y011600D03*
X018555Y012600D03*
X018555Y013600D03*
X012555Y018100D03*
X011555Y018100D03*
X010555Y018100D03*
X009555Y018100D03*
X008555Y018100D03*
X007555Y018100D03*
X006555Y018100D03*
X005555Y018100D03*
X004555Y018100D03*
X003555Y018100D03*
D12*
X013055Y008100D03*
X014055Y008100D03*
X015055Y008100D03*
X016055Y008100D03*
X017055Y008100D03*
X017055Y007100D03*
X016055Y007100D03*
X015055Y007100D03*
X014055Y007100D03*
X013055Y007100D03*
X014055Y016600D03*
X014055Y017600D03*
X015055Y017600D03*
X015055Y016600D03*
X016055Y016600D03*
X016055Y017600D03*
D13*
X012555Y015100D03*
X012555Y011100D03*
D14*
X011295Y010600D02*
X010815Y010600D01*
X010815Y009600D02*
X011295Y009600D01*
X011295Y008600D02*
X010815Y008600D01*
X010815Y007600D02*
X011295Y007600D01*
X011295Y006600D02*
X010815Y006600D01*
X010815Y005600D02*
X011295Y005600D01*
X011295Y004600D02*
X010815Y004600D01*
X010815Y003600D02*
X011295Y003600D01*
X011295Y002600D02*
X010815Y002600D01*
X008295Y002600D02*
X007815Y002600D01*
X007815Y003600D02*
X008295Y003600D01*
X008295Y004600D02*
X007815Y004600D01*
X007815Y005600D02*
X008295Y005600D01*
X008295Y006600D02*
X007815Y006600D01*
X007815Y007600D02*
X008295Y007600D01*
X008295Y008600D02*
X007815Y008600D01*
X007815Y009600D02*
X008295Y009600D01*
X008295Y010600D02*
X007815Y010600D01*
X007815Y011600D02*
X008295Y011600D01*
X008295Y012600D02*
X007815Y012600D01*
X007815Y013600D02*
X008295Y013600D01*
X008295Y014600D02*
X007815Y014600D01*
X007815Y015600D02*
X008295Y015600D01*
X010815Y015600D02*
X011295Y015600D01*
X011295Y014600D02*
X010815Y014600D01*
X010815Y013600D02*
X011295Y013600D01*
X011295Y012600D02*
X010815Y012600D01*
X010815Y011600D02*
X011295Y011600D01*
D15*
X006555Y011600D03*
X006555Y010600D03*
X006555Y009600D03*
X006555Y012600D03*
X006555Y002100D03*
X005555Y002100D03*
D16*
X004280Y008550D02*
X003830Y008550D01*
X003830Y009150D02*
X004280Y009150D01*
X004280Y009750D02*
X003830Y009750D01*
X003830Y010350D02*
X004280Y010350D01*
D17*
X002571Y003100D02*
X002635Y003060D01*
X003115Y002580D01*
X006795Y002580D01*
X007195Y002180D01*
X010635Y002180D01*
X011055Y002600D01*
X010875Y003220D02*
X015355Y003220D01*
X017835Y002740D02*
X011995Y002740D01*
X010875Y001620D01*
X007035Y001620D01*
X006555Y001140D01*
X006555Y001100D01*
X006075Y001620D02*
X004155Y001620D01*
X004539Y003100D02*
X004475Y003140D01*
X003995Y003620D01*
X001035Y003620D01*
X001035Y007860D01*
X001275Y008100D01*
X001835Y008100D01*
X002075Y008340D01*
X001835Y009060D02*
X001355Y009060D01*
X001035Y009380D01*
X001035Y014580D01*
X001515Y014580D01*
X001555Y014600D01*
X002235Y014500D02*
X003355Y015620D01*
X004795Y015620D01*
X005355Y015060D01*
X007595Y015060D01*
X008055Y014600D01*
X007515Y014340D02*
X007835Y014020D01*
X008475Y014020D01*
X009915Y012580D01*
X009595Y013220D02*
X011275Y013220D01*
X012075Y012420D01*
X012075Y011380D01*
X011675Y011380D01*
X011275Y010980D01*
X009275Y010980D01*
X009275Y011780D02*
X010875Y011780D01*
X011055Y011600D01*
X011515Y012180D02*
X006955Y012180D01*
X006555Y012580D01*
X006555Y012600D01*
X006715Y012100D02*
X005039Y012100D01*
X004075Y012100D01*
X003115Y013060D01*
X003071Y013100D01*
X002475Y014020D02*
X003555Y015100D01*
X004055Y014350D02*
X004075Y014340D01*
X007515Y014340D01*
X007835Y013780D02*
X006555Y013780D01*
X006235Y014100D01*
X004555Y014100D01*
X004075Y013620D01*
X001595Y013620D01*
X001555Y013600D01*
X001595Y011620D02*
X001555Y011600D01*
X001595Y011620D02*
X004555Y011620D01*
X005035Y011140D01*
X005039Y011100D01*
X005195Y010580D02*
X004555Y010580D01*
X004395Y010740D01*
X003435Y010740D01*
X003115Y010420D01*
X002555Y010420D01*
X002795Y010180D02*
X002635Y010020D01*
X002155Y010020D01*
X001595Y009620D02*
X001555Y009600D01*
X001595Y009620D02*
X003915Y009620D01*
X003995Y009700D01*
X004055Y009750D01*
X004075Y009780D01*
X005755Y009780D01*
X006555Y010580D01*
X006555Y010600D01*
X006395Y010100D02*
X005035Y008740D01*
X005035Y007060D01*
X002315Y007060D01*
X002075Y006820D01*
X002075Y005620D01*
X004555Y005620D01*
X004555Y005100D01*
X004555Y005620D02*
X005515Y005620D01*
X005555Y005584D01*
X006555Y005540D02*
X006555Y005584D01*
X006555Y005540D02*
X006875Y005220D01*
X008475Y005220D01*
X010955Y007700D01*
X011055Y007600D01*
X011115Y007620D01*
X012395Y008900D01*
X017595Y008900D01*
X017595Y007620D01*
X017115Y007140D01*
X017055Y007100D01*
X016555Y006820D02*
X016555Y008100D01*
X017055Y008100D01*
X017835Y008980D02*
X017835Y002740D01*
X016315Y006580D02*
X016555Y006820D01*
X016315Y006580D02*
X013595Y006580D01*
X013115Y007060D01*
X013055Y007100D01*
X012555Y008100D02*
X012555Y008660D01*
X014475Y008660D01*
X015035Y008100D01*
X015055Y008100D01*
X015515Y009140D02*
X017675Y009140D01*
X017835Y008980D01*
X015515Y009140D02*
X013675Y010980D01*
X012795Y011380D02*
X012555Y011140D01*
X012555Y011100D01*
X012795Y011380D02*
X018395Y011380D01*
X018555Y011540D01*
X018555Y011600D01*
X018555Y012600D02*
X018555Y012660D01*
X016955Y012660D01*
X016955Y017460D01*
X016315Y018100D01*
X014555Y018100D01*
X014555Y016340D01*
X014795Y016100D01*
X015515Y016100D01*
X015995Y016580D01*
X016055Y016600D01*
X016555Y017060D02*
X016555Y011780D01*
X014635Y011780D01*
X013035Y013620D02*
X013355Y013940D01*
X013355Y015060D01*
X012555Y015060D01*
X012555Y015100D01*
X012475Y016020D02*
X008475Y016020D01*
X008055Y015600D01*
X007995Y015620D01*
X006075Y015620D01*
X006055Y015584D01*
X005995Y015620D01*
X005755Y015860D01*
X002075Y015860D01*
X003595Y016260D02*
X003595Y018100D01*
X003555Y018100D01*
X004555Y018100D02*
X005115Y017540D01*
X006955Y017540D01*
X007435Y017060D01*
X006955Y017060D02*
X005995Y017060D01*
X005195Y016260D01*
X006875Y017780D02*
X007115Y017780D01*
X007355Y017540D01*
X009995Y017540D01*
X010555Y018100D01*
X011555Y018100D02*
X011595Y018100D01*
X011595Y016420D01*
X011055Y015600D02*
X011035Y015540D01*
X009595Y014100D01*
X009595Y013220D01*
X010395Y013620D02*
X009995Y014020D01*
X010395Y013620D02*
X011035Y013620D01*
X011055Y013600D01*
X011115Y013620D01*
X013035Y013620D01*
X012955Y014020D02*
X011675Y014020D01*
X011115Y014580D01*
X011055Y014600D01*
X012475Y016020D02*
X014055Y017600D01*
X016055Y017600D02*
X016075Y017540D01*
X016555Y017060D01*
X011515Y012180D02*
X011675Y012020D01*
X011055Y010600D02*
X010555Y010100D01*
X006395Y010100D01*
X006555Y009620D02*
X006555Y009600D01*
X006555Y009620D02*
X007995Y009620D01*
X008055Y009600D01*
X008075Y009540D01*
X009115Y009540D01*
X010955Y007700D01*
X011035Y007620D02*
X011055Y007600D01*
X011055Y006600D02*
X012555Y008100D01*
X010075Y006340D02*
X008395Y004660D01*
X008075Y004660D01*
X008055Y004600D01*
X008875Y003620D02*
X008235Y002980D01*
X006715Y002980D01*
X006555Y002100D02*
X006075Y001620D01*
X008055Y002600D02*
X008075Y002660D01*
X008155Y002740D01*
X010395Y002740D01*
X010875Y003220D01*
X009275Y004180D02*
X004475Y004180D01*
X003555Y005100D01*
X003115Y006100D02*
X002635Y006580D01*
X002571Y006600D01*
X003115Y006100D02*
X007515Y006100D01*
X007995Y005620D01*
X008055Y005600D01*
X008055Y007600D02*
X007995Y007620D01*
X007035Y008580D01*
X006555Y008580D01*
X006555Y008600D01*
X005195Y010580D02*
X005675Y011060D01*
X007515Y011060D01*
X008055Y011600D01*
X007195Y011620D02*
X006715Y012100D01*
X005835Y012580D02*
X006555Y013300D01*
X006635Y013300D01*
X007355Y013300D01*
X008055Y012600D01*
X008055Y013600D02*
X007995Y013620D01*
X007835Y013780D01*
X005835Y012580D02*
X004235Y012580D01*
X004155Y012500D01*
X004055Y010350D02*
X003995Y010340D01*
X003835Y010180D01*
X002795Y010180D01*
X001835Y009060D02*
X003435Y007460D01*
X006875Y017780D02*
X006555Y018100D01*
D18*
X006955Y017060D03*
X007435Y017060D03*
X005195Y016260D03*
X003595Y016260D03*
X002075Y015860D03*
X002235Y014500D03*
X002475Y014020D03*
X004155Y012500D03*
X002555Y010420D03*
X002155Y010020D03*
X002075Y008340D03*
X003435Y007460D03*
X007195Y011620D03*
X006635Y013300D03*
X009275Y011780D03*
X009275Y010980D03*
X009915Y012580D03*
X009995Y014020D03*
X011675Y012020D03*
X013675Y010980D03*
X014635Y011780D03*
X012955Y014020D03*
X011595Y016420D03*
X010075Y006340D03*
X009275Y004180D03*
X008875Y003620D03*
X006715Y002980D03*
X004155Y001620D03*
X015355Y003220D03*
M02*
